<svg xmlns="http://www.w3.org/2000/svg" xmlns:xlink="http://www.w3.org/1999/xlink" viewBox="0 0 755.64 504.25"><defs><style>.cls-1,.cls-23,.cls-27,.cls-28,.cls-29,.cls-30,.cls-31,.cls-32,.cls-33,.cls-34{fill:none;}.cls-2{isolation:isolate;}.cls-3{clip-path:url(#clip-path);}.cls-24,.cls-25,.cls-4{fill:#fff;}.cls-5{fill:#dadcdb;}.cls-6{fill:#09333f;}.cls-7{fill:#06252a;}.cls-8{fill:#f25586;}.cls-9{fill:#e03d77;}.cls-10{fill:#ffebd4;}.cls-11{fill:#8e4e3f;}.cls-12{fill:#473036;}.cls-13{fill:#5b4147;}.cls-14{fill:#301f24;}.cls-15{fill:#ff9d66;}.cls-16{fill:#efd1b4;}.cls-17{fill:#ddc5ac;}.cls-18{fill:#ed7656;}.cls-19{fill:#ffbb83;}.cls-20{fill:#073640;}.cls-21{fill:#c74d24;}.cls-22{fill:#ea6a21;}.cls-23,.cls-27,.cls-30,.cls-31,.cls-32{stroke:#ffefb0;stroke-linecap:round;stroke-linejoin:round;}.cls-23{stroke-width:1.52px;}.cls-24{opacity:0.3;}.cls-25{opacity:0.87;}.cls-26{fill:#8f6fc9;}.cls-27{stroke-width:1.13px;}.cls-28,.cls-29,.cls-33{stroke:#fff;stroke-width:1.39px;}.cls-28,.cls-29,.cls-33,.cls-34{stroke-miterlimit:10;}.cls-29{stroke-dasharray:2.79 2.79;}.cls-30{stroke-width:0.92px;}.cls-31{stroke-width:1.23px;}.cls-32{stroke-width:0.62px;}.cls-33{stroke-dasharray:2.78;}.cls-34{stroke:#a6ace0;stroke-width:1.69px;}.cls-35{fill:#e8eaff;mix-blend-mode:multiply;}.cls-36{fill:url(#linear-gradient);}.cls-37{fill:url(#Áåçûìÿííûé_ãðàäèåíò_6);}.cls-38{fill:url(#Áåçûìÿííûé_ãðàäèåíò_6-2);}.cls-39{fill:url(#linear-gradient-2);}.cls-40{fill:url(#Áåçûìÿííûé_ãðàäèåíò_12);}.cls-41,.cls-44{mix-blend-mode:screen;}.cls-41{fill:url(#Áåçûìÿííûé_ãðàäèåíò_18);}.cls-42{fill:#eefdff;}.cls-43{fill:url(#Áåçûìÿííûé_ãðàäèåíò_12-2);}.cls-44{fill:url(#Áåçûìÿííûé_ãðàäèåíò_18-2);}.cls-45{fill:url(#Áåçûìÿííûé_ãðàäèåíò_12-3);}.cls-46{fill:url(#Áåçûìÿííûé_ãðàäèåíò_6-3);}.cls-47{fill:url(#Áåçûìÿííûé_ãðàäèåíò_28);}.cls-48{fill:url(#linear-gradient-3);}.cls-49{fill:url(#Áåçûìÿííûé_ãðàäèåíò_6-4);}.cls-50{fill:url(#linear-gradient-4);}.cls-51{fill:url(#Áåçûìÿííûé_ãðàäèåíò_37);}</style><clipPath id="clip-path"><rect class="cls-1" width="755.64" height="504.25"/></clipPath><linearGradient id="linear-gradient" x1="1489.58" y1="-7111.39" x2="1527.72" y2="-7150.51" gradientTransform="matrix(-0.11, 0.99, 0.99, 0.11, 7770.46, -346.89)" gradientUnits="userSpaceOnUse"><stop offset="0" stop-color="#066ef1"/><stop offset="0" stop-color="#066ef1"/><stop offset="0.13" stop-color="#379adb"/><stop offset="0.25" stop-color="#5dbdca"/><stop offset="0.37" stop-color="#78d6bd"/><stop offset="0.47" stop-color="#88e5b6"/><stop offset="0.54" stop-color="#8eeab3"/><stop offset="0.8" stop-color="#b9f39f"/><stop offset="1" stop-color="#defa8e"/></linearGradient><linearGradient id="Áåçûìÿííûé_ãðàäèåíò_6" x1="8017.53" y1="265.64" x2="8024.63" y2="264.6" gradientTransform="matrix(1, 0, 0, -1, -7511.7, 529.87)" gradientUnits="userSpaceOnUse"><stop offset="0.04" stop-color="#06cff1"/><stop offset="1" stop-color="#defa8e"/></linearGradient><linearGradient id="Áåçûìÿííûé_ãðàäèåíò_6-2" x1="8015.71" y1="283.68" x2="8028.32" y2="269.44" gradientTransform="matrix(1, 0, 0, -1, -7511.7, 552.37)" xlink:href="#Áåçûìÿííûé_ãðàäèåíò_6"/><linearGradient id="linear-gradient-2" x1="7997.45" y1="332.98" x2="8047.41" y2="283.02" gradientTransform="matrix(1, 0, 0, -1, -7511.7, 608.31)" xlink:href="#linear-gradient"/><linearGradient id="Áåçûìÿííûé_ãðàäèåíò_12" x1="8022.22" y1="314.3" x2="8022.66" y2="294.32" gradientTransform="matrix(-1, 0, 0, 1, 8533, 0)" gradientUnits="userSpaceOnUse"><stop offset="0" stop-color="#030d14"/><stop offset="1" stop-color="#0b2f45"/></linearGradient><radialGradient id="Áåçûìÿííûé_ãðàäèåíò_18" cx="8010.62" cy="304.16" r="8.3" gradientTransform="matrix(-1, 0, 0, 1, 8533, 0)" gradientUnits="userSpaceOnUse"><stop offset="0.13" stop-color="#3280fc"/><stop offset="1"/></radialGradient><linearGradient id="Áåçûìÿííûé_ãðàäèåíò_12-2" x1="8005.57" y1="304.16" x2="8015.68" y2="304.16" xlink:href="#Áåçûìÿííûé_ãðàäèåíò_12"/><radialGradient id="Áåçûìÿííûé_ãðàäèåíò_18-2" cx="8033.29" cy="304.16" r="8.3" xlink:href="#Áåçûìÿííûé_ãðàäèåíò_18"/><linearGradient id="Áåçûìÿííûé_ãðàäèåíò_12-3" x1="8028.23" y1="304.16" x2="8038.35" y2="304.16" xlink:href="#Áåçûìÿííûé_ãðàäèåíò_12"/><linearGradient id="Áåçûìÿííûé_ãðàäèåíò_6-3" x1="8015.97" y1="257.06" x2="8025.37" y2="255.69" gradientTransform="matrix(-1, 0, 0, 1, 8533, 0)" xlink:href="#Áåçûìÿííûé_ãðàäèåíò_6"/><linearGradient id="Áåçûìÿííûé_ãðàäèåíò_28" x1="8022.05" y1="322.06" x2="8036.51" y2="307.59" gradientTransform="matrix(-1, 0, 0, 1, 8533, 0)" gradientUnits="userSpaceOnUse"><stop offset="0.07" stop-color="#0da9ab"/><stop offset="1" stop-color="#defa8e"/></linearGradient><linearGradient id="linear-gradient-3" x1="8008.39" y1="365.95" x2="8046.71" y2="321.2" gradientTransform="matrix(-1, 0, 0, 1, 8533, 0)" xlink:href="#linear-gradient"/><linearGradient id="Áåçûìÿííûé_ãðàäèåíò_6-4" x1="8006.36" y1="343.64" x2="8029.4" y2="316.73" gradientTransform="matrix(-1, 0, 0, 1, 8533, 0)" xlink:href="#Áåçûìÿííûé_ãðàäèåíò_6"/><linearGradient id="linear-gradient-4" x1="-6494.78" y1="-729.29" x2="-6463.25" y2="-745.71" gradientTransform="translate(7007.62 102.78) rotate(-8.66)" xlink:href="#linear-gradient"/><linearGradient id="Áåçûìÿííûé_ãðàäèåíò_37" x1="8030.59" y1="357.23" x2="8050.92" y2="346.63" gradientTransform="matrix(-1, 0, 0, 1, 8533, 0)" gradientUnits="userSpaceOnUse"><stop offset="0.04" stop-color="#06bed8"/><stop offset="1" stop-color="#defa8e"/></linearGradient></defs><title>Artboard 1</title><g class="cls-2"><g id="Layer_1" data-name="Layer 1"><g class="cls-3"><rect class="cls-4" x="184.93" y="378.89" width="376.32" height="13.58"/><rect class="cls-4" x="199.82" y="392.59" width="350.68" height="32.46"/><polygon class="cls-4" points="550.5 425.05 562.63 557.24 552.43 557.24 529.55 425.05 550.5 425.05"/><polygon class="cls-4" points="500.46 425.05 512.59 557.24 502.39 557.24 479.51 425.05 500.46 425.05"/><polygon class="cls-4" points="250.82 425.05 238.69 557.24 248.89 557.24 271.78 425.05 250.82 425.05"/><rect class="cls-5" x="506.25" y="378.89" width="55" height="13.58"/><rect class="cls-5" x="491.78" y="392.59" width="58.72" height="32.46"/><polygon class="cls-5" points="500.46 425.05 512.59 557.24 509.84 557.24 491.78 425.05 500.46 425.05"/><polygon class="cls-5" points="550.5 425.05 562.63 557.24 559.88 557.24 541.82 425.05 550.5 425.05"/><polygon class="cls-4" points="199.83 425.05 187.7 557.24 197.9 557.24 220.78 425.05 199.83 425.05"/><polygon class="cls-5" points="212.17 425.05 195.69 557.24 198.44 557.24 220.78 425.05 212.17 425.05"/><polygon class="cls-5" points="263.16 425.05 246.69 557.24 249.44 557.24 271.78 425.05 263.16 425.05"/><rect class="cls-6" x="326.16" y="256.7" width="140.81" height="96.33"/><rect class="cls-7" x="385.5" y="353.04" width="22.34" height="22.34"/><rect class="cls-6" x="378.88" y="375.38" width="35.61" height="3.52"/><rect class="cls-4" x="330.53" y="262.11" width="132.06" height="78.57"/><path class="cls-8" d="M295,357.92c8.27,7.72,17.85,38.88,17.85,38.88l-18.39.86-3.59-2.58Z"/><path class="cls-9" d="M297.94,376.1A76.49,76.49,0,0,1,295.06,358l0,0-4.13,37.16,3.59,2.58,12.76-.6C303.89,392.7,300.4,385.1,297.94,376.1Z"/><path class="cls-10" d="M313.12,396.46c0-1.24-4.65-2.26-10.36-2.26s-10.31,1-10.29,2.25,4.66,2.27,10.36,2.27S313.14,397.71,313.12,396.46Z"/><path class="cls-11" d="M295.61,346.43c-10,12.84-32.56,3.1-31.36-2.7-5.32,6.28-24.91-3.09-19.15-17.33,0,0-10.75-9.93-3.13-21.72,6.92-10.71,14.53-8.08,14.53-8.08S255.24,281.83,268,279c14.54-3.19,20.9,7.45,20.9,7.45s5-10.73,20.26-1.41.86,20.55.86,20.55,14.75,25.47-7.49,29S295.61,346.43,295.61,346.43Z"/><path class="cls-8" d="M296.3,359.5c-3.18-5.5-19.93-10.34-26.52-6.73-6.38,3.5-29.5,56.43-16.72,83.5a2.87,2.87,0,0,0,3.81,1.37L294.59,420C290.23,413.17,299.47,365,296.3,359.5Z"/><path class="cls-9" d="M280.29,389.58c-3.19-5.35-3.41-16.34-3.9-21.13-.58-5.63-8.64-10.52-7.32-15.14-11.2,3.19-28.36,56.82-16,83a2.87,2.87,0,0,0,3.81,1.37L271,419.45C265.9,409.6,277.78,394.53,280.29,389.58Z"/><path class="cls-12" d="M256.68,438.79h55.47l10.67-14.23s-75.15-29-68.86,11.85A2.77,2.77,0,0,0,256.68,438.79Z"/><path class="cls-13" d="M269.65,415.09c1.47,3.2,8.66,5.64,17.32,5.64,5.8,0,10.93-1.1,14.14-2.78C290.92,415.5,279,413.65,269.65,415.09Z"/><path class="cls-14" d="M281.91,438.79h13.41l1.35-14.86C287.8,422.18,281.91,438.79,281.91,438.79Z"/><path class="cls-15" d="M290.69,427.91C284,440.56,281,476.84,281,476.84s20-44.34,18.88-49.54S293.43,422.71,290.69,427.91Z"/><path class="cls-15" d="M309.64,429.82c-7.26,12.39-12.09,47.93-12.09,47.93s22.11-43.44,21.26-48.53S312.62,424.73,309.64,429.82Z"/><path class="cls-16" d="M283.55,488.74c-6.3-8.76-3.62-13.86-2.29-15.2C284.28,470.51,285.19,486.4,283.55,488.74Z"/><path class="cls-16" d="M300.38,488.74c-6.29-8.76-3.62-13.86-2.28-15.2C301.12,470.51,302,486.4,300.38,488.74Z"/><path class="cls-8" d="M268.71,353.66c5.6-.32,8.14,10.37,6.86,16.71-3.08,15.14,7.93,18,7.93,18l-13.29,8s-10.39-3.36-12.16-16C255.32,360.87,267,353.76,268.71,353.66Z"/><path class="cls-9" d="M269.78,352.77a5.12,5.12,0,0,0-1,.89h0c-.84,0-4,1.8-6.76,5.8a46.12,46.12,0,0,0,14.37,2.15c7.36,0,13.95-1.5,18.47-3.86C289.59,353.05,275.66,349.55,269.78,352.77Z"/><path class="cls-17" d="M289.31,354.45c-5.68-2.45-13.26-3.75-17.94-2.32,1.5,2,4.68,3.72,8.57,4.23S287.34,356.05,289.31,354.45Z"/><path class="cls-18" d="M274.33,351.62l2-11.89,11.26,1.08-1.31,12.5S277.41,356.48,274.33,351.62Z"/><path class="cls-19" d="M283,348.67c-19.64-1.48-29.55-14.85-23-35.33s32.73-16.64,42-14,14.86,17.5,13.87,27.93S303.19,350.2,283,348.67Z"/><path class="cls-11" d="M315.38,293.88c-18.4,50.44-6.88,38.88-58.22,61.66,0,0-18.66-37.57,9-56.93S315.38,293.88,315.38,293.88Z"/><rect class="cls-20" x="255.96" y="452.87" width="10" height="88.3"/><rect class="cls-20" x="245.5" y="447.02" width="30.22" height="5.86"/><path class="cls-20" d="M226,441h67.41a0,0,0,0,1,0,0v0a6,6,0,0,1-6,6H232a6,6,0,0,1-6-6v0a0,0,0,0,1,0,0Z"/><path class="cls-21" d="M213.09,309.17h53.35S278.64,316,278,328.23s10.11,18.82,2.78,95.18h30.69s12.2,9.07,0,17.61H219s-13.25-4.36-11.85-16.56c0,0,9.41-50.21,2.09-94.49C209.26,330,206.35,311.49,213.09,309.17Z"/><path class="cls-22" d="M278.43,323.05s-3.26-16-13.25-14.41-3.49,18.83-2.56,20,10.93,16,2.56,86.24c0,0-2.79,20,9.41,20.22h41.84s2.53-5.52-5-11.68l-30.78-.17S288.13,364.49,278.43,323.05Z"/><polygon class="cls-19" points="307.82 394.49 305.93 403.29 314.42 421.65 304.31 418.72 298.43 404.07 298.05 394.42 302.99 394.2 307.82 394.49"/><path class="cls-19" d="M299.48,330.2c.83-2.5,2.74-4.11,4.27-3.61s2.09,3,1.26,5.45-2.74,4.11-4.27,3.6S298.65,332.7,299.48,330.2Z"/><path class="cls-18" d="M300.66,331c.51-1.54,1.69-2.54,2.63-2.23s1.29,1.82.78,3.36-1.69,2.53-2.63,2.22S300.15,332.51,300.66,331Z"/><path class="cls-19" d="M300.79,332.71c.5-1,1.39-1.66,2-1.47s.67,1.18.17,2.18-1.39,1.66-2,1.46S300.28,333.71,300.79,332.71Z"/><path class="cls-23" d="M229.24,114.86a6,6,0,0,1-6,6"/><path class="cls-23" d="M229.24,114.86a6,6,0,0,0,6,6"/><path class="cls-23" d="M229.24,126.87a6,6,0,0,0-6-6"/><path class="cls-23" d="M229.24,126.87a6,6,0,0,1,6-6"/><path class="cls-24" d="M234.2,157.15H210.77a4.91,4.91,0,0,1-4.91-4.91h0a4.91,4.91,0,0,1,4.91-4.91H234.2a4.91,4.91,0,0,1,4.91,4.91h0A4.91,4.91,0,0,1,234.2,157.15Z"/><path class="cls-25" d="M239.82,193.48a8.72,8.72,0,0,0,.16-1.62,8.43,8.43,0,0,0-8.43-8.42,8.34,8.34,0,0,0-4,1,14.4,14.4,0,0,0-26,8.47v.1a15.16,15.16,0,0,0-13.44,15.06h0a15.17,15.17,0,0,0,15.16,15.17h32.57a15.17,15.17,0,0,0,15.16-15.17h0A15.15,15.15,0,0,0,239.82,193.48Z"/><path class="cls-26" d="M227.8,213.46v-3.32l9.4-3.36-9.4-3.35v-3.32l13.69,5v3.27Z"/><path class="cls-26" d="M195.53,208.42v-3.27l13.69-5v3.32l-9.4,3.35,9.4,3.36v3.32Z"/><path class="cls-26" d="M222,196.67h2.87l-8.32,21.1h-2.86Z"/><path class="cls-4" d="M201.49,100.17l3.16,3.16a7.55,7.55,0,0,1,10.64-.3l.83-.83,2.51-2.51a11.41,11.41,0,0,0-8.32-3.3A12.78,12.78,0,0,0,201.49,100.17Z"/><path class="cls-4" d="M204,90.12a20.81,20.81,0,0,0-7.71,4.9l3.16,3.15a16,16,0,0,1,8.21-4.39,14.35,14.35,0,0,1,13,3.8l3.34-3.34A19,19,0,0,0,204,90.12Z"/><path class="cls-4" d="M206.74,105.42l3.08,3.08,3.26-3.26A4.49,4.49,0,0,0,206.74,105.42Z"/><path class="cls-4" d="M234.53,281.09a.75.75,0,0,1-.25,1c-.66.41-1.33.79-2,1.15a.76.76,0,1,1-.72-1.33c.65-.35,1.3-.72,1.94-1.11A.75.75,0,0,1,234.53,281.09Zm-6.1,3,.06.12a.77.77,0,0,1-.42,1c-.73.28-1.45.54-2.19.78a.74.74,0,0,1-.95-.48.75.75,0,0,1,.48-1c.7-.23,1.4-.48,2.1-.76A.78.78,0,0,1,228.43,284.13Zm-6.54,1.94a.69.69,0,0,1,.1.25.75.75,0,0,1-.59.89c-.76.15-1.52.28-2.29.39a.76.76,0,0,1-.21-1.5c.73-.1,1.47-.23,2.2-.38A.76.76,0,0,1,221.89,286.07Zm-6.77.75a.73.73,0,0,1,.11.38.76.76,0,0,1-.74.78c-.77,0-1.55,0-2.32,0a.75.75,0,0,1-.73-.78.76.76,0,0,1,.79-.73c.74,0,1.48,0,2.23,0A.77.77,0,0,1,215.12,286.82Zm-6.8-.44a.76.76,0,0,1-.76,1.15c-.77-.12-1.53-.26-2.29-.42a.76.76,0,1,1,.32-1.48c.73.15,1.46.29,2.19.4A.81.81,0,0,1,208.32,286.38Zm-32.09-46.87a.72.72,0,0,1,.09.56q-.24,1.08-.42,2.19a.75.75,0,1,1-1.49-.24c.12-.77.27-1.53.43-2.28a.77.77,0,0,1,.91-.58A.76.76,0,0,1,176.23,239.51Zm25.47,45.26a.78.78,0,0,1,.07.64.77.77,0,0,1-1,.47c-.74-.25-1.46-.52-2.18-.81a.76.76,0,1,1,.57-1.4c.69.28,1.39.54,2.09.77A.75.75,0,0,1,201.7,284.77Zm-26.36-38.5a.76.76,0,0,1,.11.42c0,.75,0,1.49,0,2.24a.76.76,0,0,1-1.52,0c0-.78,0-1.55,0-2.32a.77.77,0,0,1,.79-.73A.78.78,0,0,1,175.34,246.27ZM195.46,282a.78.78,0,0,1,0,.77.76.76,0,0,1-1,.3c-.68-.38-1.35-.77-2-1.18a.76.76,0,0,1,.81-1.28c.63.39,1.27.77,1.92,1.13A.81.81,0,0,1,195.46,282Zm-19.82-28.94a.67.67,0,0,1,.1.29c.1.74.22,1.47.36,2.2a.76.76,0,1,1-1.49.29c-.15-.76-.27-1.52-.37-2.29a.75.75,0,0,1,.65-.85A.77.77,0,0,1,175.64,253.08Zm14.15,25.16a.75.75,0,0,1-1.12,1c-.6-.48-1.19-1-1.76-1.5a.75.75,0,0,1,0-1.07.76.76,0,0,1,1.07-.06c.55.5,1.11,1,1.69,1.45A.65.65,0,0,1,189.79,278.24Zm-12.67-18.51a.48.48,0,0,1,.08.16c.23.71.47,1.41.74,2.11a.75.75,0,1,1-1.41.54c-.28-.72-.54-1.45-.77-2.18a.76.76,0,0,1,.49-1A.75.75,0,0,1,177.12,259.73Zm7.76,13.78a.75.75,0,0,1-1.21.89c-.51-.58-1-1.17-1.47-1.79a.76.76,0,0,1,1.2-.93c.45.6.92,1.17,1.41,1.73A.36.36,0,0,1,184.88,273.51ZM179.76,266a.05.05,0,0,1,0,0c.35.65.71,1.3,1.1,1.94a.76.76,0,0,1-1.3.79h0c-.4-.67-.78-1.34-1.14-2a.77.77,0,0,1,.32-1A.76.76,0,0,1,179.76,266Z"/><polygon class="cls-4" points="179.61 225.96 170.11 238.36 181.35 241.48 179.61 225.96"/><path class="cls-4" d="M213.7,248.74a2.58,2.58,0,1,1-2.58-2.58A2.57,2.57,0,0,1,213.7,248.74Z"/><circle class="cls-4" cx="221.78" cy="248.74" r="2.58"/><circle class="cls-4" cx="232.43" cy="248.74" r="2.58"/><path class="cls-4" d="M245.66,248.74a2.58,2.58,0,1,1-2.58-2.58A2.58,2.58,0,0,1,245.66,248.74Z"/><path class="cls-4" d="M179.56,167.83a2.58,2.58,0,1,1-2.58-2.58A2.58,2.58,0,0,1,179.56,167.83Z"/><path class="cls-4" d="M190.21,167.83a2.58,2.58,0,1,1-2.58-2.58A2.58,2.58,0,0,1,190.21,167.83Z"/><circle class="cls-4" cx="198.28" cy="167.83" r="2.58"/><path class="cls-4" d="M211.51,167.83a2.58,2.58,0,1,1-2.58-2.58A2.58,2.58,0,0,1,211.51,167.83Z"/><path class="cls-24" d="M289.09,99.46H264.63a3.08,3.08,0,0,1-3.07-3.07h0a3.07,3.07,0,0,1,3.07-3.07h24.46a3.06,3.06,0,0,1,3.07,3.07h0A3.07,3.07,0,0,1,289.09,99.46Z"/><path class="cls-24" d="M153.34,142.55h0a3.07,3.07,0,0,0-3.07-3.07H125.81a3.08,3.08,0,0,0-3.07,3.07h0a3.07,3.07,0,0,0,3.07,3.07h1.9a1.69,1.69,0,0,1,1.69,1.69v0a1.69,1.69,0,0,1-1.69,1.69h-4.63a3.06,3.06,0,0,0-3.06,3.07h0a3.07,3.07,0,0,0,3.06,3.07h24.47a3.08,3.08,0,0,0,3.07-3.07h0a3.07,3.07,0,0,0-3.07-3.07H144.7a1.69,1.69,0,0,1-1.69-1.69v0a1.68,1.68,0,0,1,1.69-1.69h5.57A3.06,3.06,0,0,0,153.34,142.55Z"/><path class="cls-27" d="M396.78,168.35a4.45,4.45,0,0,0,4.45,4.45"/><path class="cls-27" d="M396.78,168.35a4.45,4.45,0,0,1-4.45,4.45"/><path class="cls-27" d="M396.78,177.28a4.45,4.45,0,0,1,4.45-4.45"/><path class="cls-27" d="M396.78,177.28a4.45,4.45,0,0,0-4.45-4.45"/><path class="cls-27" d="M275.16,155.5a4.45,4.45,0,0,0,4.45,4.45"/><path class="cls-27" d="M275.16,155.5a4.45,4.45,0,0,1-4.45,4.45"/><path class="cls-27" d="M275.16,164.43a4.45,4.45,0,0,1,4.45-4.45"/><path class="cls-27" d="M275.16,164.43a4.45,4.45,0,0,0-4.45-4.45"/><path class="cls-27" d="M101.29,119.87a4.45,4.45,0,0,0,4.45,4.45"/><path class="cls-27" d="M101.29,119.87a4.45,4.45,0,0,1-4.45,4.45"/><path class="cls-27" d="M101.29,128.8a4.45,4.45,0,0,1,4.45-4.45"/><path class="cls-27" d="M101.29,128.8a4.45,4.45,0,0,0-4.45-4.45"/><path class="cls-27" d="M153.1,184.78a4.45,4.45,0,0,0,4.45,4.45"/><path class="cls-27" d="M153.1,184.78a4.45,4.45,0,0,1-4.45,4.45"/><path class="cls-27" d="M153.1,193.71a4.46,4.46,0,0,1,4.45-4.45"/><path class="cls-27" d="M153.1,193.71a4.45,4.45,0,0,0-4.45-4.45"/><path class="cls-24" d="M274.61,177.88H292a3.66,3.66,0,0,0,3.66-3.66h0a3.66,3.66,0,0,0-3.66-3.65H274.61a3.66,3.66,0,0,0-3.66,3.65h0A3.66,3.66,0,0,0,274.61,177.88Z"/><path class="cls-25" d="M112.59,91.81a6.78,6.78,0,0,1-.11-1.2,6.26,6.26,0,0,1,9.25-5.51,10.7,10.7,0,0,1,19.37,6.29v.08a11.28,11.28,0,0,1,10,11.21h0A11.28,11.28,0,0,1,139.82,114H115.6a11.28,11.28,0,0,1-11.28-11.28h0A11.28,11.28,0,0,1,112.59,91.81Z"/><path class="cls-26" d="M132.15,102.16l-.14,2.9c-.09,1.59-.52,2.06-1.54,2.06H130v2.61h1.62c1.8,0,3.08-1,3.22-3.22l.23-3.89c.09-1.34.38-1.74,1.6-1.74V98.27c-1.22,0-1.51-.41-1.6-1.74l-.23-3.89c-.14-2.2-1.42-3.22-3.22-3.22H130V92h.46c1,0,1.45.47,1.54,2.06l.14,2.9A2.47,2.47,0,0,0,134,99.57,2.48,2.48,0,0,0,132.15,102.16Z"/><path class="cls-26" d="M123.27,97l.15-2.9c.08-1.59.52-2.06,1.53-2.06h.47V89.42h-1.63c-1.8,0-3.07,1-3.22,3.22l-.23,3.89c-.09,1.33-.38,1.74-1.6,1.74v2.61c1.22,0,1.51.4,1.6,1.74l.23,3.89c.15,2.2,1.42,3.22,3.22,3.22h1.63v-2.61H125c-1,0-1.45-.47-1.53-2.06l-.15-2.9a2.48,2.48,0,0,0-1.89-2.59A2.47,2.47,0,0,0,123.27,97Z"/><path class="cls-25" d="M257.42,40.52a6.81,6.81,0,0,1-.11-1.21,6.28,6.28,0,0,1,9.25-5.51,10.7,10.7,0,0,1,19.37,6.3v.08a11.27,11.27,0,0,1,10,11.2h0a11.28,11.28,0,0,1-11.28,11.28H260.43a11.28,11.28,0,0,1-11.28-11.28h0A11.26,11.26,0,0,1,257.42,40.52Z"/><path class="cls-26" d="M271.48,35.62a8.19,8.19,0,0,1,3.6,15.91l.12.95a.61.61,0,0,1-.43.66l.51,4,.18,0a.3.3,0,0,1,.37.21l1.37,10.55c0,.16-.13.32-.35.35h.08l.05.42c0,.12-.1.23-.25.25l-.68.08-.68.09c-.16,0-.29-.05-.31-.17l-.05-.42h.07a.36.36,0,0,1-.43-.25l-1.37-10.55c0-.14.11-.27.3-.3l.18,0-.51-4a.6.6,0,0,1-.6-.52l-.11-.88a8.19,8.19,0,0,1-1.06-16.31Zm1.87,14.32a6.25,6.25,0,0,0-1.62-12.4,6.25,6.25,0,0,0-4.87,3.59,6.35,6.35,0,0,0-.52,3.42A6.26,6.26,0,0,0,273.35,49.94Z"/><path class="cls-4" d="M304.35,154.82v-2.47l-7-2.5,7-2.49v-2.47l-10.18,3.75v2.43Z"/><path class="cls-4" d="M328.35,151.07v-2.43l-10.18-3.75v2.47l7,2.49-7,2.5v2.47Z"/><path class="cls-4" d="M308.69,142.33h-2.13L312.75,158h2.13Z"/><path class="cls-4" d="M55.89,100.43l-2.35,2.35a5.61,5.61,0,0,0-7.91-.22l-.62-.62-1.87-1.87a8.47,8.47,0,0,1,6.19-2.45A9.43,9.43,0,0,1,55.89,100.43Z"/><path class="cls-4" d="M54,93a15.66,15.66,0,0,1,5.73,3.65L57.38,99a11.81,11.81,0,0,0-6.11-3.27,10.68,10.68,0,0,0-9.7,2.82L39.09,96A14.15,14.15,0,0,1,54,93Z"/><path class="cls-4" d="M52,104.34l-2.29,2.29-2.43-2.43A3.35,3.35,0,0,1,52,104.34Z"/><path class="cls-4" d="M101.75,90a.56.56,0,0,0,.57-.56c0-.58,0-1.15,0-1.72a.58.58,0,0,0-.6-.54.57.57,0,0,0-.53.6c0,.55,0,1.1,0,1.66A.56.56,0,0,0,101.75,90Zm-.44-5h.1a.56.56,0,0,0,.46-.65c-.1-.57-.22-1.13-.35-1.69a.57.57,0,0,0-1.1.26c.13.54.24,1.08.34,1.62A.56.56,0,0,0,101.31,85ZM100,80.05a.63.63,0,0,0,.19,0,.57.57,0,0,0,.34-.72c-.2-.55-.41-1.08-.64-1.61a.58.58,0,0,0-.75-.29.57.57,0,0,0-.29.74c.22.51.43,1,.62,1.54A.56.56,0,0,0,100,80.05Zm-2.16-4.59a.53.53,0,0,0,.28-.07.57.57,0,0,0,.21-.77c-.29-.5-.6-1-.91-1.47a.58.58,0,0,0-.79-.16.57.57,0,0,0-.15.79c.3.46.59.93.87,1.4A.58.58,0,0,0,97.84,75.46Zm-2.92-4.14a.56.56,0,0,0,.43-.93c-.38-.43-.76-.86-1.16-1.28a.56.56,0,0,0-.79,0,.56.56,0,0,0,0,.8c.38.4.75.81,1.1,1.23A.55.55,0,0,0,94.92,71.32Zm-42.21-2.1a.61.61,0,0,0,.4-.16c.39-.39.8-.76,1.22-1.12a.57.57,0,0,0,.06-.8.58.58,0,0,0-.8-.06c-.43.38-.86.77-1.27,1.17a.57.57,0,0,0,0,.8A.58.58,0,0,0,52.71,69.22Zm38.6-1.47a.56.56,0,0,0,.36-1c-.44-.37-.89-.72-1.35-1.07a.57.57,0,0,0-.79.12.56.56,0,0,0,.12.79c.44.33.88.67,1.3,1A.57.57,0,0,0,91.31,67.75ZM56.65,66a.62.62,0,0,0,.32-.09c.45-.31.92-.61,1.4-.89a.58.58,0,0,0,.19-.78.56.56,0,0,0-.77-.19c-.49.29-1,.6-1.46.92a.57.57,0,0,0-.15.78A.55.55,0,0,0,56.65,66Zm30.5-1.15a.59.59,0,0,0,.49-.29.57.57,0,0,0-.21-.77c-.5-.28-1-.55-1.52-.81a.57.57,0,0,0-.76.26.56.56,0,0,0,.26.75c.49.25,1,.51,1.46.78A.57.57,0,0,0,87.15,64.87ZM61.08,63.56a.46.46,0,0,0,.23-.05c.51-.22,1-.43,1.54-.63a.56.56,0,1,0-.4-1.05c-.54.2-1.07.42-1.6.65a.57.57,0,0,0-.28.75A.55.55,0,0,0,61.08,63.56Zm21.46-.81a.57.57,0,0,0,.53-.38.56.56,0,0,0-.34-.72c-.54-.19-1.08-.37-1.64-.53a.57.57,0,0,0-.7.39.57.57,0,0,0,.39.7c.53.15,1,.32,1.57.51Zm-16.66-.83.14,0c.53-.13,1.07-.25,1.62-.35a.56.56,0,1,0-.21-1.11c-.57.11-1.13.23-1.68.37a.56.56,0,0,0-.42.68A.57.57,0,0,0,65.88,61.92Zm11.76-.44a.56.56,0,0,0,.09-1.12q-.84-.15-1.71-.24a.56.56,0,0,0-.12,1.12c.55.06,1.1.14,1.64.23Zm-6.75-.34h0c.55,0,1.1-.06,1.66-.06a.57.57,0,0,0,0-1.13h0c-.58,0-1.15,0-1.72.06a.57.57,0,0,0,0,1.13Z"/><polygon class="cls-4" points="45.44 76.63 49.61 65.79 55.95 71.7 45.44 76.63"/><path class="cls-4" d="M265.57,173.32c-.29-.48-.57-1-.83-1.44a.56.56,0,0,0-1,.53c.27.51.55,1,.86,1.5a.56.56,0,0,0,1-.59Zm-2.22-4.45q-.32-.78-.57-1.56a.56.56,0,0,0-1.07.35c.18.55.37,1.09.59,1.63a.55.55,0,0,0,.73.31l.09,0A.57.57,0,0,0,263.35,168.87Zm-1.42-4.77c-.1-.54-.2-1.09-.28-1.63a.56.56,0,1,0-1.11.16c.08.56.17,1.13.29,1.7a.57.57,0,0,0,.66.44l.19-.07A.58.58,0,0,0,261.93,164.1Zm-.55-4.94c0-.55,0-1.1,0-1.66a.55.55,0,0,0-.54-.58.56.56,0,0,0-.58.54c0,.58,0,1.15,0,1.73a.55.55,0,0,0,.57.55.51.51,0,0,0,.28-.08A.56.56,0,0,0,261.38,159.16Zm.33-5c.08-.55.18-1.09.29-1.63a.55.55,0,0,0-.43-.67.57.57,0,0,0-.67.43c-.12.57-.22,1.13-.31,1.7a.55.55,0,0,0,.47.64.61.61,0,0,0,.38-.07A.6.6,0,0,0,261.71,154.2Zm34.86-23.83a.57.57,0,0,0-.43-.67c-.56-.13-1.13-.24-1.7-.33a.57.57,0,0,0-.18,1.12c.55.08,1.09.19,1.63.31a.6.6,0,0,0,.42-.07A.57.57,0,0,0,296.57,130.37Zm-33.68,19c.17-.52.37-1,.57-1.55a.57.57,0,0,0-.31-.74.55.55,0,0,0-.73.31q-.33.81-.6,1.62a.56.56,0,0,0,.35.71.54.54,0,0,0,.48-.05A.66.66,0,0,0,262.89,149.37Zm28.66-19.76A.56.56,0,0,0,291,129c-.57,0-1.14,0-1.72,0a.57.57,0,0,0-.56.57.56.56,0,0,0,.58.55c.55,0,1.1,0,1.66,0a.65.65,0,0,0,.31-.08A.57.57,0,0,0,291.55,129.61Zm-26.67,15.21c.27-.48.55-1,.84-1.43a.56.56,0,1,0-1-.6c-.31.49-.6,1-.87,1.49a.56.56,0,0,0,.22.76.58.58,0,0,0,.57,0A.48.48,0,0,0,264.88,144.82Zm21.6-15.09a.56.56,0,0,0-.63-.48c-.57.07-1.14.16-1.7.27a.57.57,0,0,0-.45.67.56.56,0,0,0,.66.44c.54-.1,1.09-.19,1.64-.26a.83.83,0,0,0,.22-.08A.58.58,0,0,0,286.48,129.73Zm-18.83,11q.51-.65,1.08-1.26a.58.58,0,0,0,0-.8.57.57,0,0,0-.8,0c-.39.43-.76.87-1.12,1.31a.57.57,0,0,0,.08.8.58.58,0,0,0,.65,0A.64.64,0,0,0,267.65,140.69Zm13.86-9.95a.55.55,0,0,0-.71-.36q-.81.26-1.62.57a.56.56,0,1,0,.4,1.05c.52-.2,1-.38,1.57-.55a.34.34,0,0,0,.12-.06A.56.56,0,0,0,281.51,130.74Zm-10.42,6.37q.63-.54,1.29-1.05a.57.57,0,0,0,.1-.79.56.56,0,0,0-.79-.1c-.46.35-.9.71-1.34,1.09a.57.57,0,0,0,.67.91Zm5.71-4.5a.57.57,0,0,0-.76-.24c-.51.27-1,.55-1.51.85h0a.57.57,0,0,0,.58,1c.48-.29,1-.56,1.45-.82l0,0A.56.56,0,0,0,276.8,132.61Z"/><polygon class="cls-4" points="306.39 133.24 297.17 126.18 294.85 134.54 306.39 133.24"/><path class="cls-4" d="M57.88,119.93a1.58,1.58,0,0,0,1.77-1.28h1.09v10.24H59.13v-7.81H57.88Z"/><path class="cls-4" d="M62.55,121.1a2.44,2.44,0,1,1,4.88,0v5.33a2.44,2.44,0,1,1-4.88,0Zm1.61,5.43c0,.73.32,1,.83,1s.83-.28.83-1V121c0-.73-.32-1-.83-1s-.83.28-.83,1Z"/><path class="cls-4" d="M69.47,119.93a1.6,1.6,0,0,0,1.77-1.28h1.08v10.24H70.71v-7.81H69.47Z"/><path class="cls-4" d="M74.13,121.1a2.44,2.44,0,1,1,4.88,0v5.33a2.44,2.44,0,1,1-4.88,0Zm1.61,5.43c0,.73.32,1,.83,1s.84-.28.84-1V121c0-.73-.33-1-.84-1s-.83.28-.83,1Z"/><path class="cls-4" d="M79.92,121.1a2.45,2.45,0,1,1,4.89,0v5.33a2.45,2.45,0,1,1-4.89,0Zm1.61,5.43c0,.73.32,1,.83,1s.84-.28.84-1V121c0-.73-.33-1-.84-1s-.83.28-.83,1Z"/><path class="cls-4" d="M63.11,108.87a2.45,2.45,0,1,1,4.89,0v5.32a2.45,2.45,0,1,1-4.89,0Zm1.61,5.43c0,.73.32,1,.83,1s.84-.27.84-1v-5.53c0-.73-.32-1-.84-1s-.83.28-.83,1Z"/><path class="cls-4" d="M70,107.7a1.6,1.6,0,0,0,1.77-1.29h1.08v10.24H71.27v-7.81H70Z"/><path class="cls-4" d="M75.82,107.7a1.6,1.6,0,0,0,1.77-1.29h1.08v10.24H77.06v-7.81H75.82Z"/><path class="cls-4" d="M174.1,128.08H159.31a6.89,6.89,0,0,1-6.89-6.89h0a6.88,6.88,0,0,1,6.89-6.89H174.1a6.89,6.89,0,0,1,6.89,6.89h0A6.9,6.9,0,0,1,174.1,128.08Z"/><circle class="cls-4" cx="165.07" cy="114.3" r="6.54"/><circle class="cls-4" cx="172.18" cy="113.82" r="3.83"/><path class="cls-26" d="M161,117.65h11.9a1.09,1.09,0,0,0,1.09-1.09h0a1.09,1.09,0,0,0-1.09-1.09H161a1.09,1.09,0,0,0-1.09,1.09h0A1.09,1.09,0,0,0,161,117.65Z"/><path class="cls-26" d="M158.65,120.84h14.21a1.09,1.09,0,0,0,1.09-1.09h0a1.09,1.09,0,0,0-1.09-1.09H158.65a1.09,1.09,0,0,0-1.1,1.09h0A1.09,1.09,0,0,0,158.65,120.84Z"/><path class="cls-26" d="M158.65,124h14.21A1.09,1.09,0,0,0,174,123h0a1.09,1.09,0,0,0-1.09-1.09H158.65a1.09,1.09,0,0,0-1.1,1.09h0A1.09,1.09,0,0,0,158.65,124Z"/><circle class="cls-4" cx="421.53" cy="86.5" r="28.12"/><circle class="cls-4" cx="375.97" cy="159.53" r="28.12"/><circle class="cls-4" cx="495.24" cy="153.13" r="27.46"/><circle class="cls-4" cx="564.07" cy="72.6" r="30.38"/><circle class="cls-4" cx="575.85" cy="197.37" r="28.5"/><circle class="cls-4" cx="685.72" cy="153.13" r="27.74"/><path class="cls-4" d="M366.07,224.58a.57.57,0,0,0,.41.7q.86.22,1.71.39a.58.58,0,0,0,.68-.45.58.58,0,0,0-.45-.68c-.55-.11-1.1-.23-1.65-.37A.57.57,0,0,0,366.07,224.58Zm5.1.85a.3.3,0,0,0,0,.1.59.59,0,0,0,.53.62c.59,0,1.17.07,1.76.08a.56.56,0,0,0,.58-.56.57.57,0,0,0-.56-.59c-.56,0-1.13,0-1.69-.08A.57.57,0,0,0,371.17,225.43Zm5.17-.06a.71.71,0,0,0,0,.2.58.58,0,0,0,.63.52c.59-.06,1.17-.13,1.75-.23a.56.56,0,0,0,.47-.65.57.57,0,0,0-.66-.48c-.55.09-1.11.16-1.67.22A.57.57,0,0,0,376.34,225.37Zm5.08-1a.51.51,0,0,0,0,.3.58.58,0,0,0,.71.4c.57-.16,1.13-.34,1.68-.53a.56.56,0,0,0,.35-.73.58.58,0,0,0-.73-.36c-.53.19-1.07.36-1.61.51A.57.57,0,0,0,381.42,224.41Zm4.83-1.84a.62.62,0,0,0,0,.4.59.59,0,0,0,.77.27c.53-.26,1.05-.53,1.56-.82a.57.57,0,0,0-.56-1q-.75.41-1.5.78A.59.59,0,0,0,386.25,222.57Zm12.81-41.13a.59.59,0,0,0,.05.43c.28.49.55,1,.8,1.49a.57.57,0,0,0,.77.26.58.58,0,0,0,.26-.77c-.26-.52-.54-1-.83-1.55a.57.57,0,0,0-.78-.22A.54.54,0,0,0,399.06,181.44Zm-8.37,38.49a.6.6,0,0,0,.09.48.59.59,0,0,0,.8.13c.48-.35.94-.7,1.4-1.07a.58.58,0,0,0,.08-.81.57.57,0,0,0-.81-.09c-.44.36-.88.7-1.34,1A.57.57,0,0,0,390.69,219.93Zm10.52-33.79a.57.57,0,0,0,0,.34c.18.53.36,1.06.52,1.6a.57.57,0,1,0,1.1-.32c-.16-.56-.34-1.12-.54-1.67a.57.57,0,0,0-.73-.35A.59.59,0,0,0,401.21,186.14Zm-6.61,30.41a.55.55,0,0,0,.16.55.57.57,0,0,0,.81,0c.41-.42.8-.85,1.19-1.3a.57.57,0,0,0-.06-.81.58.58,0,0,0-.81.06c-.37.43-.75.85-1.14,1.25A.46.46,0,0,0,394.6,216.55Zm7.91-25.41a.65.65,0,0,0,0,.24c.1.56.17,1.11.23,1.68a.58.58,0,0,0,1.15-.13c-.06-.58-.15-1.16-.24-1.74a.58.58,0,0,0-.66-.47A.58.58,0,0,0,402.51,191.14Zm-4.65,21.4a.57.57,0,0,0,.24.62.56.56,0,0,0,.79-.16c.33-.48.65-1,.95-1.48a.58.58,0,0,0-.21-.79.57.57,0,0,0-.78.2c-.29.49-.59,1-.91,1.43A.71.71,0,0,0,397.86,212.54Zm5.06-16.24a.59.59,0,0,0,0,.13c0,.57,0,1.13-.07,1.69a.58.58,0,1,0,1.15.08c0-.58.06-1.17.07-1.75a.57.57,0,0,0-.57-.58A.56.56,0,0,0,402.92,196.3ZM400.37,208a.58.58,0,0,0,.32.67.59.59,0,0,0,.76-.3c.23-.53.46-1.07.66-1.62a.58.58,0,0,0-.33-.74.57.57,0,0,0-.74.33c-.2.53-.42,1-.64,1.57A.16.16,0,0,0,400.37,208Zm2-6.58v0q-.15.83-.36,1.65a.58.58,0,0,0,1.12.29h0c.14-.57.26-1.15.37-1.72a.57.57,0,0,0-1.12-.25Z"/><line class="cls-28" x1="675.85" y1="153.13" x2="674.46" y2="153.13"/><line class="cls-29" x1="671.67" y1="153.13" x2="522.37" y2="153.13"/><line class="cls-28" x1="520.98" y1="153.13" x2="519.59" y2="153.13"/><path class="cls-4" d="M618.33,145.13a2.1,2.1,0,1,1-2.1-2.1A2.1,2.1,0,0,1,618.33,145.13Z"/><path class="cls-4" d="M627,145.13a2.1,2.1,0,1,1-2.1-2.1A2.1,2.1,0,0,1,627,145.13Z"/><circle class="cls-4" cx="633.55" cy="145.13" r="2.1"/><path class="cls-4" d="M644.3,145.13a2.1,2.1,0,1,1-2.1-2.1A2.1,2.1,0,0,1,644.3,145.13Z"/><path class="cls-4" d="M511.24,186.83a2.1,2.1,0,1,1-2.1-2.1A2.09,2.09,0,0,1,511.24,186.83Z"/><path class="cls-4" d="M519.9,186.83a2.1,2.1,0,1,1-2.1-2.1A2.09,2.09,0,0,1,519.9,186.83Z"/><circle class="cls-4" cx="526.46" cy="186.83" r="2.1"/><path class="cls-4" d="M537.21,186.83a2.1,2.1,0,1,1-2.1-2.1A2.09,2.09,0,0,1,537.21,186.83Z"/><path class="cls-4" d="M437.33,137.27a2.1,2.1,0,1,1-2.1-2.1A2.09,2.09,0,0,1,437.33,137.27Z"/><path class="cls-4" d="M446,137.27a2.1,2.1,0,1,1-2.09-2.1A2.08,2.08,0,0,1,446,137.27Z"/><circle class="cls-4" cx="452.54" cy="137.27" r="2.1"/><path class="cls-4" d="M463.3,137.27a2.1,2.1,0,1,1-2.1-2.1A2.09,2.09,0,0,1,463.3,137.27Z"/><image width="72" height="72" transform="translate(665.55 132.96) scale(0.56)" xlink:href="D:%5CProjects%202020%5CTechokids%5CWeb%20Icon%20Image%5CWebp.net-resizeimage-5_55283ec404bfb2cd8421ec6c3bf1091d.png"/><image width="72" height="72" transform="translate(555.8 177.32) scale(0.56)" xlink:href="D:%5CProjects%202020%5CTechokids%5CWeb%20Icon%20Image%5CWebp.net-resizeimage_aae92fb10ac84672124091a7f91aa74f.png"/><image width="72" height="72" transform="translate(541.33 49.86) scale(0.63)" xlink:href="D:%5CProjects%202020%5CTechokids%5CWeb%20Icon%20Image%5CWebp.net-resizeimage-1_56e965bd0403cdc4ae83cebe6a4dad4e.png"/><image width="72" height="72" transform="translate(476.12 134.01) scale(0.53)" xlink:href="D:%5CProjects%202020%5CTechokids%5CWeb%20Icon%20Image%5CWebp.net-resizeimage-2_d332f21181a0aa618cf739dfc5989bea.png"/><image width="72" height="72" transform="translate(401.82 66.8) scale(0.55)" xlink:href="D:%5CProjects%202020%5CTechokids%5CWeb%20Icon%20Image%5CWebp.net-resizeimage-4_cf07d8d687c67019037f8c5ec2b34554-1.png"/><path class="cls-30" d="M627.21,66.33a3.62,3.62,0,0,0,3.62,3.61"/><path class="cls-30" d="M627.21,66.33a3.62,3.62,0,0,1-3.62,3.61"/><path class="cls-30" d="M627.21,73.59A3.62,3.62,0,0,1,630.83,70"/><path class="cls-30" d="M627.21,73.59A3.62,3.62,0,0,0,623.59,70"/><path class="cls-4" d="M630.75,55.86a.45.45,0,0,0,.46-.46c0-.47,0-.93,0-1.4a.46.46,0,0,0-.48-.43.45.45,0,0,0-.43.49c0,.44,0,.89,0,1.34A.46.46,0,0,0,630.75,55.86Zm-.35-4.1h.07a.46.46,0,0,0,.38-.53c-.08-.46-.18-.92-.29-1.37a.44.44,0,0,0-.55-.34.45.45,0,0,0-.34.55c.1.43.2.87.27,1.32A.47.47,0,0,0,630.4,51.76Zm-1.07-4,.15,0a.47.47,0,0,0,.28-.59c-.16-.44-.34-.87-.52-1.3a.47.47,0,0,0-.61-.24.46.46,0,0,0-.24.6c.18.42.35.83.5,1.26A.48.48,0,0,0,629.33,47.78Zm-1.76-3.73a.39.39,0,0,0,.23-.07.45.45,0,0,0,.17-.62c-.24-.41-.48-.8-.74-1.19a.46.46,0,0,0-.77.5c.25.38.49.76.72,1.15A.43.43,0,0,0,627.57,44.05Zm-2.38-3.37a.48.48,0,0,0,.3-.11.45.45,0,0,0,0-.64q-.45-.54-.93-1a.46.46,0,0,0-.65,0,.47.47,0,0,0,0,.65c.31.32.61.66.9,1A.44.44,0,0,0,625.19,40.68ZM590.89,39a.44.44,0,0,0,.32-.13c.33-.31.66-.62,1-.91a.47.47,0,0,0,0-.65.46.46,0,0,0-.65,0c-.35.3-.7.62-1,.94a.45.45,0,0,0,0,.65A.47.47,0,0,0,590.89,39Zm31.38-1.19a.46.46,0,0,0,.35-.17.45.45,0,0,0-.06-.64c-.36-.3-.73-.59-1.1-.86a.45.45,0,0,0-.64.09.46.46,0,0,0,.09.64c.36.27.72.55,1.06.83A.43.43,0,0,0,622.27,37.78ZM594.1,36.37a.41.41,0,0,0,.25-.08q.55-.37,1.14-.72a.46.46,0,0,0,.16-.63.47.47,0,0,0-.63-.16c-.4.24-.8.49-1.18.75a.47.47,0,0,0-.13.64A.47.47,0,0,0,594.1,36.37Zm24.78-.94a.45.45,0,0,0,.23-.85c-.41-.24-.82-.46-1.24-.66a.45.45,0,0,0-.61.2.46.46,0,0,0,.21.62c.4.2.8.41,1.18.63A.49.49,0,0,0,618.88,35.43ZM597.7,34.37a.39.39,0,0,0,.18,0c.41-.18.83-.35,1.25-.51a.46.46,0,0,0,.27-.59.46.46,0,0,0-.59-.27l-1.3.53a.47.47,0,0,0-.23.61A.45.45,0,0,0,597.7,34.37Zm17.44-.66a.46.46,0,0,0,.15-.89c-.44-.16-.88-.3-1.33-.43a.46.46,0,0,0-.26.88c.44.13.86.26,1.29.41A.4.4,0,0,0,615.14,33.71ZM601.6,33l.11,0c.43-.1.87-.2,1.31-.28a.46.46,0,0,0,.37-.54.45.45,0,0,0-.53-.36c-.46.08-.92.18-1.37.29a.46.46,0,0,0,.11.91Zm9.55-.36a.45.45,0,0,0,.45-.39.44.44,0,0,0-.37-.52c-.46-.08-.92-.14-1.39-.19a.46.46,0,0,0-.51.4.47.47,0,0,0,.41.51c.45,0,.9.11,1.34.18Zm-5.48-.27h0l1.35,0a.44.44,0,0,0,.45-.46.45.45,0,0,0-.46-.45h0c-.47,0-.94,0-1.4,0a.46.46,0,0,0,0,.92Z"/><polygon class="cls-4" points="584.98 44.99 588.37 36.18 593.53 40.98 584.98 44.99"/><path class="cls-4" d="M598.73,57.59a1.3,1.3,0,0,0,1.44-1.05h.88v8.33h-1.31V58.52h-1Z"/><path class="cls-4" d="M602.52,58.54a2,2,0,1,1,4,0v4.33a2,2,0,1,1-4,0ZM603.83,63c0,.6.26.82.68.82s.68-.22.68-.82V58.46c0-.6-.26-.82-.68-.82s-.68.22-.68.82Z"/><path class="cls-4" d="M608.15,57.59a1.3,1.3,0,0,0,1.44-1.05h.87v8.33h-1.3V58.52h-1Z"/><path class="cls-4" d="M611.94,58.54a2,2,0,1,1,4,0v4.33a2,2,0,1,1-4,0ZM613.25,63c0,.6.26.82.67.82s.68-.22.68-.82V58.46c0-.6-.26-.82-.68-.82s-.67.22-.67.82Z"/><path class="cls-4" d="M616.64,58.54a2,2,0,1,1,4,0v4.33a2,2,0,1,1-4,0ZM618,63c0,.6.26.82.68.82s.68-.22.68-.82V58.46c0-.6-.26-.82-.68-.82s-.68.22-.68.82Z"/><path class="cls-4" d="M603,48.6a2,2,0,1,1,4,0v4.32a2,2,0,1,1-4,0ZM604.29,53c0,.59.26.82.68.82s.68-.23.68-.82v-4.5c0-.59-.27-.82-.68-.82s-.68.23-.68.82Z"/><path class="cls-4" d="M608.6,47.65a1.3,1.3,0,0,0,1.44-1h.88v8.32h-1.31V48.57h-1Z"/><path class="cls-4" d="M613.31,47.65a1.3,1.3,0,0,0,1.44-1h.88v8.32h-1.31V48.57h-1Z"/><path class="cls-31" d="M460.07,98.94a4.87,4.87,0,0,0,4.87,4.87"/><path class="cls-31" d="M460.07,98.94a4.86,4.86,0,0,1-4.86,4.87"/><path class="cls-31" d="M460.07,108.7a4.87,4.87,0,0,1,4.87-4.86"/><path class="cls-31" d="M460.07,108.7a4.86,4.86,0,0,0-4.86-4.86"/><path class="cls-32" d="M391.63,61.75a2.43,2.43,0,0,0,2.44,2.43"/><path class="cls-32" d="M391.63,61.75a2.43,2.43,0,0,1-2.43,2.43"/><path class="cls-32" d="M391.63,66.63a2.43,2.43,0,0,1,2.44-2.43"/><path class="cls-32" d="M391.63,66.63a2.43,2.43,0,0,0-2.43-2.43"/><path class="cls-24" d="M512.94,106.15h19a4,4,0,0,0,4-4h0a4,4,0,0,0-4-4h-19a4,4,0,0,0-4,4h0A4,4,0,0,0,512.94,106.15Z"/><path class="cls-4" d="M557.35,114.83a2.1,2.1,0,1,0,2.1-2.1A2.1,2.1,0,0,0,557.35,114.83Z"/><path class="cls-4" d="M548.69,114.83a2.1,2.1,0,1,0,2.1-2.1A2.1,2.1,0,0,0,548.69,114.83Z"/><circle class="cls-4" cx="542.13" cy="114.83" r="2.1"/><path class="cls-4" d="M531.38,114.83a2.1,2.1,0,1,0,2.09-2.1A2.1,2.1,0,0,0,531.38,114.83Z"/><path class="cls-24" d="M454.31,120.06H434.43a2.49,2.49,0,0,1-2.5-2.49h0a2.5,2.5,0,0,1,2.5-2.5h19.88a2.49,2.49,0,0,1,2.49,2.5h0A2.48,2.48,0,0,1,454.31,120.06Z"/><line class="cls-33" x1="421.98" y1="253.29" x2="421.98" y2="110.63"/><image width="72" height="72" transform="translate(354.37 137.93) scale(0.6)" xlink:href="D:%5CProjects%202020%5CTechokids%5CWeb%20Icon%20Image%5CWebp.net-resizeimage-3_8cea93022b8f226734377a34b046d415-1.png"/><polyline class="cls-33" points="464.97 153.13 433.69 153.13 433.69 253.29"/><polyline class="cls-33" points="544.04 197.65 445.01 197.65 445.01 253.29"/><path class="cls-34" d="M504.45,360s-40.61,24.54-69.11-6.27"/><ellipse class="cls-35" cx="510.34" cy="376.14" rx="37.54" ry="2.22"/><path class="cls-36" d="M543.82,332c-11.13,3.05-13.75,2.2-15.74,5.18a6.74,6.74,0,0,0-1.15,4.34,6.41,6.41,0,0,0,1.8,3.77c3.82,3.69,14.3-.82,20.31-5.76,1.31-1.07,4.82-4,4.12-6a3.08,3.08,0,0,0-1.84-1.55C548.46,330.64,545.5,331.49,543.82,332Z"/><rect class="cls-37" x="509.47" y="257.17" width="2.37" height="15.54" transform="translate(1021.3 529.87) rotate(180)"/><rect class="cls-38" x="500.29" y="271.08" width="20.72" height="10.21" rx="2.18" transform="translate(1021.3 552.37) rotate(180)"/><path class="cls-39" d="M490.67,276h40a17.09,17.09,0,0,1,17.09,17.09v8.88a30.41,30.41,0,0,1-30.41,30.41H504a30.41,30.41,0,0,1-30.41-30.41v-8.88A17.09,17.09,0,0,1,490.67,276Z" transform="translate(1021.3 608.31) rotate(180)"/><path class="cls-40" d="M485.24,313.64h0a7.15,7.15,0,0,0,3.16.73h44.5a7.12,7.12,0,0,0,3.16-.73h0a5.84,5.84,0,0,0,3.39-6l0-.18c-1.14-8.26-8.63-14.62-17.8-15.1q-5.83-.3-12.21-.28c-3.33,0-6.55.12-9.65.28-9.21.47-16.75,6.8-17.9,15.1l0,.18A5.86,5.86,0,0,0,485.24,313.64Z"/><circle class="cls-41" cx="522.38" cy="304.16" r="8.39"/><circle class="cls-42" cx="522.38" cy="304.16" r="6.02"/><circle class="cls-43" cx="522.38" cy="304.16" r="5.06"/><path class="cls-42" d="M519.14,302.85A1.88,1.88,0,1,0,521,301,1.87,1.87,0,0,0,519.14,302.85Z"/><circle class="cls-42" cx="523.13" cy="308.03" r="0.75"/><path class="cls-42" d="M525,306.91a.38.38,0,1,0,.75,0,.38.38,0,0,0-.75,0Z"/><circle class="cls-44" cx="499.71" cy="304.16" r="8.39"/><circle class="cls-42" cx="499.71" cy="304.16" r="6.02"/><circle class="cls-45" cx="499.71" cy="304.16" r="5.06"/><path class="cls-42" d="M496.47,302.85a1.88,1.88,0,1,0,1.88-1.88A1.88,1.88,0,0,0,496.47,302.85Z"/><circle class="cls-42" cx="500.46" cy="308.03" r="0.75"/><path class="cls-42" d="M502.31,306.91a.38.38,0,1,0,.75,0,.38.38,0,0,0-.75,0Z"/><path class="cls-46" d="M507.62,256.13a3,3,0,1,0,3-3A3,3,0,0,0,507.62,256.13Z"/><path class="cls-4" d="M508.54,255a.93.93,0,1,0,.93-.93A.93.93,0,0,0,508.54,255Z"/><path class="cls-4" d="M484.53,285.69c0,1.42,1.11,3.11,2.44,3.26s2.23-1.14,3.25-2.45,3.22-4.6,2.34-5.53C491.4,279.73,484.62,282.35,484.53,285.69Z"/><circle class="cls-4" cx="495.87" cy="279.24" r="1.05"/><path class="cls-4" d="M484.68,305.34c.34.24,2.7-4.57,9-8.73,2.22-1.47,4.42-2.51,4.29-2.82s-2.61.27-4.59,1.19C487.1,297.91,484.28,305.06,484.68,305.34Z"/><path class="cls-4" d="M500.89,274.1c.08,0,.12-.43.49-1.12,0,0,.18-.32.37-.59.64-.87,2.79-.85,3-.85,3.36,0,5.52-.19,5.52-.17s-1.58,0-2.73,0c-3.25-.07-5.19-.25-6,.63a2.63,2.63,0,0,0-.52.83A1.72,1.72,0,0,0,500.89,274.1Z"/><path class="cls-42" d="M501.59,318a1.71,1.71,0,0,0,1.55,1.5l11.12,1.07a1.7,1.7,0,0,0,1.81-1.17,6.38,6.38,0,0,0,.24-1.07.35.35,0,0,0-.07-.28.4.4,0,0,0-.26-.14l-14-1.35a.37.37,0,0,0-.28.09.36.36,0,0,0-.12.26A6.62,6.62,0,0,0,501.59,318Z"/><path class="cls-47" d="M501.59,318A7.42,7.42,0,0,0,516,319.5a1.72,1.72,0,0,1-1.77,1l-11.12-1.07A1.71,1.71,0,0,1,501.59,318Z"/><path class="cls-48" d="M484.08,342.93v.3a7,7,0,0,0,.36,1.95c3.06,9.34,4.89,14.27,7.46,18.26.45.69.91,1.35,1.42,2a33,33,0,0,0,2.17,2.58,12.94,12.94,0,0,0,5.33,3.11,21.87,21.87,0,0,0,7.82.94H509a21.87,21.87,0,0,0,7.82-.94,12.88,12.88,0,0,0,5.33-3.11c4.88-5.31,6.76-9.73,11-22.83a6.75,6.75,0,0,0,.35-1.83,6.45,6.45,0,0,0,0-.76,7.91,7.91,0,0,0-1.86-4.51,10.25,10.25,0,0,0-8-3.74l-14.87-.06-14.6-.06A10.56,10.56,0,0,0,486,338a8.24,8.24,0,0,0-1.81,3.77c0,.19-.05.38-.07.56S484.08,342.72,484.08,342.93Z"/><path class="cls-49" d="M508.81,334.28l14.86.06a10.35,10.35,0,0,1,8,3.74,8,8,0,0,1,1.85,4.51,7.89,7.89,0,0,0-1.91-4.62,10.54,10.54,0,0,0-8.21-3.75Z"/><path class="cls-50" d="M494,356.19c.21-11.54,1.77-13.82-.53-16.56a6.73,6.73,0,0,0-3.83-2.34,6.52,6.52,0,0,0-4.14.67c-4.61,2.62-3.24,14-.2,21.11.66,1.56,2.44,5.75,4.61,5.65a3.08,3.08,0,0,0,2-1.33C494,361,494,357.93,494,356.19Z"/><path class="cls-51" d="M491.9,363.44c.45.69.91,1.35,1.42,2,.16-.16.3-.32.43-.47,2-2.38,2.05-5.47,2.08-7.21.22-11.53,1.78-13.81-.52-16.55a7.19,7.19,0,0,0-1.79-1.55c2.27,2.74.72,5,.51,16.54,0,1.74-.06,4.82-2.09,7.2Z"/><path class="cls-4" d="M485.4,346.58a18.34,18.34,0,0,1,.76-4c.61-2.39,1.37-3.55.87-4-.32-.3-.95-.1-1.1-.05-2.18.7-2.85,4.79-2.76,7.35.06,1.56.44,3.31,1,3.39a.65.65,0,0,0,.47-.14A3.66,3.66,0,0,0,485.4,346.58Z"/><path class="cls-4" d="M483.9,351a.45.45,0,1,0,.9,0,.45.45,0,1,0-.9,0Z"/></g></g></g></svg>